<?xml version="1.0" encoding="utf-8"?>
<!-- Generator: Adobe Illustrator 25.4.1, SVG Export Plug-In . SVG Version: 6.00 Build 0)  -->
<svg version="1.1" id="Layer_1" xmlns="http://www.w3.org/2000/svg" xmlns:xlink="http://www.w3.org/1999/xlink" x="0px" y="0px"
	 viewBox="0 0 100 100" style="enable-background:new 0 0 100 100;" xml:space="preserve">
<path d="M97.1,52.1C95.3,38.5,91.1,23,95,9.4c1.8-6.2-7.9-8.8-9.6-2.7c-3.9,13.6-0.5,28,1.2,41.7c0.9,7,2.1,14,2.5,21
	c0.3,5.6-0.2,11-1.1,16.4c-1.5-0.6-3.1-1-4.7-1.2c-3.3-0.5-6.6-0.3-9.9-0.3c-8.5,0-17,0.1-25.5,0.1c-7.6,0-14.9,0.2-22.4,1.9
	c-3.8,0.8-6.7,0.7-10.5,0.1c-0.7-0.1-1.4-0.2-2-0.3c0.7-12.8,2.5-25.3,4.3-38.1c1.6-11.4-0.8-23-3-34.3c1.4-0.1,2.8-0.3,4.3-0.5
	c5.9-0.8,11.9-1.1,17.9-1.3c12.2-0.5,24.4-0.1,36.6,0.9c6.4,0.6,6.4-9.5,0-10C62.2,1.9,51.3,1.5,40.5,1.8C35.2,1.9,30,2.2,24.8,2.6
	c-2.4,0.2-4.7,0.4-7,0.7c-1.9,0.2-5.2,1.4-7,0.6C6.6,2,2.6,5.1,3.4,9.6c2.4,13.8,5.8,27.2,3.4,41.2C4.5,64.3,3.1,78,2.7,91.8
	c-0.1,4.1,4.2,5.8,7.5,4.3c2.4-1.1,7.2,1.1,9.8,1c3.3,0,6.5-0.9,9.7-1.6c7.2-1.5,14.7-1.1,22-1.2c7.9,0,15.7-0.1,23.6-0.1
	c2.9,0,6.1-0.4,8.8,0.8c2.8,1.2,4.5,2.6,7.6,2.8c2,0.1,4.4-1.6,4.8-3.7c1.4-7,2.6-14.1,2.6-21.2C99.2,66,98,59.1,97.1,52.1z"/>
</svg>
