<?xml version="1.0" encoding="utf-8"?>
<!-- Generator: Adobe Illustrator 25.4.1, SVG Export Plug-In . SVG Version: 6.00 Build 0)  -->
<svg version="1.1" id="Layer_1" xmlns="http://www.w3.org/2000/svg" xmlns:xlink="http://www.w3.org/1999/xlink" x="0px" y="0px"
	 viewBox="0 0 100 100" style="enable-background:new 0 0 100 100;" xml:space="preserve">
<g>
	<path d="M66.7,14.9c2.6-2,4.4-3.5,5.5-4.5c1-1,2.1-2,3.2-2.9c1.1-0.9,2.2-1.5,3.2-1.7c1-0.2,2.2-0.1,3.5,0.2c1.3,0.4,2.5,0.7,3.5,1
		s1.7,0.5,1.9,0.6c1.1,1.1,2.1,2.6,2.8,4.5c0.7,1.8,1.1,3.3,1.1,4.3c0,1-0.3,2-0.9,2.8c-2.1,5.3-7.5,12.9-16.3,22.6
		c-2.2,2.5-4.1,4.5-5.7,6c0.9,3.1,1.6,7.1,2,12.2c1,10.4,1.7,16.3,2,17.9c0.3,1.5,0.5,2.7,0.6,3.4c0.1,0.7,0.4,1.4,0.9,2.2
		c0.4,1.8-0.1,3.1-1.6,4.2c-1.5,1-3.4,1.8-5.6,2.3c-4.7,1.1-8.7,1.3-12,0.5c-1.6-1.2-2.8-2.8-3.5-4.6c-1-2.2-2.6-6.6-4.8-13.4
		c-1.1,1.2-2.2,2.5-3.2,3.7c-1,1.2-2.1,2.5-3.1,3.7L38,82.6c-0.6,0.8-1.2,1.6-1.8,2.5c-0.6,0.8-1.2,1.7-1.9,2.6
		c-1.4,1.6-3.6,3.3-6.5,5.1c-2.8,1.1-5.3,1.6-7.7,1.5c-4.4-0.3-6.8-1.5-7.2-3.5C10.5,90,9.2,88.7,8.7,87c-0.4-1.7-0.2-4.4,0.8-8.1
		C18.8,62.1,26.9,50.6,34,44.4c-0.9-1.4-1.6-3.6-2.2-6.6c-1.1-5.5-2.2-9.1-3.1-10.8c-2.6-0.7-4.4-2.1-5.5-4c-1.1-2-0.8-4.7,0.9-8.2
		l1.8-2.2c4-3.6,8.1-5.7,12.4-6.5c4.3-0.7,8.2,0.3,11.8,3.1c2.7,1,5.6,3.9,8.8,8.6c0.8,1.2,1.3,2.3,1.5,3.1
		C62,19,64.1,16.9,66.7,14.9z"/>
</g>
</svg>
