<?xml version="1.0" encoding="utf-8"?>
<!-- Generator: Adobe Illustrator 25.4.1, SVG Export Plug-In . SVG Version: 6.00 Build 0)  -->
<svg version="1.1" id="Layer_1" xmlns="http://www.w3.org/2000/svg" xmlns:xlink="http://www.w3.org/1999/xlink" x="0px" y="0px"
	 viewBox="0 0 464.3 53.1" style="enable-background:new 0 0 464.3 53.1;" xml:space="preserve">
<g>
	<path d="M140.6,8.2C140.4,8.1,140.4,8.3,140.6,8.2L140.6,8.2z"/>
	<path d="M280.4,4.5c0.1,0,0.1,0,0.1,0c0.1-0.5,0.2-0.9,0.3-1.3L280.4,4.5z"/>
	<path d="M302.9,7.7c0.1,0.1,0.1,0.1,0.1,0.1C303,7.5,303,7.2,302.9,7.7z"/>
	<path d="M228.6,9.2c-0.2,0-0.3,0.1-0.4,0.2C228.3,9.3,228.4,9.3,228.6,9.2z"/>
	<path d="M99.4,10.9C99.4,10.9,99.5,10.8,99.4,10.9c0-0.1-0.1-0.2-0.1-0.3L99.4,10.9z"/>
	<path d="M99.9,10c0.5,0.4-0.1,0.7-0.4,0.8c0.5,0.7,1.1,0.7,1.7,0.4C101.2,10.5,100.1,10.6,99.9,10z"/>
	<path d="M24.7,13l0.2-0.3C24.8,12.8,24.8,12.9,24.7,13z"/>
	<path d="M230.8,47.1c-0.1,0.1-0.2,0.1-0.3,0.2C230.6,47.3,230.7,47.2,230.8,47.1z"/>
	<path d="M36.5,13.8l0.1-1.2C36.5,13.1,36.5,13.4,36.5,13.8z"/>
	<path d="M280.8,3.3l0.2-0.5C280.9,2.9,280.9,3.1,280.8,3.3z"/>
	<path d="M323.6,8.5c0,0.4,0.1,0.7,0.1,0.9c0,0,0,0,0.1,0L323.6,8.5z"/>
	<path d="M428.3,27.9c0-0.2,0-0.3-0.1-0.5l-0.4,0.9C428.1,28.2,428.2,28.1,428.3,27.9z"/>
	<path d="M352.1,13.8c0-0.1,0.1-0.3,0.1-0.4c-0.5-0.4-1.8-0.5-3.4-0.5l-0.1,1.5L352.1,13.8z"/>
	<path d="M383.3,48.8l-3-3c9.7-1.4,14.3,1.6,22.6-0.8l-0.5,0.7c1.2,0.7,1.9-6.1,15.3,2.2v0.3c0.5-0.1,0.5-0.7,1.4,0.1l-2.3-1.9
		c1.4-0.8,2.6-2.2,4.5-2.4c0.4,0.3,0.5,1,0.6,1.4l4.5-0.5l1.4,2c1.4-1.1,0.8-5.2,4.5-2.9c-1.4-2.9,1.8-1.7,1.4-3.2
		c0.2,0.4,0.6,0.9,1,1.4c2.2-0.3,6.4-1.1,7.4-2.6c0,0-8.6-6-11-9.1c3.1,0.8,0.8-0.4,0.2-1.3L431,30c-1.9-0.7-1.9-2.5-2.8-3
		c0,0.1,0,0.3,0.1,0.5l0.1-0.2c0.1,0.3,0,0.5-0.1,0.7c0,0.4-0.1,0.7-0.6,0.6l0.1-0.2c-0.8,0.3-2.1,0-2.7-0.1l0-1.5
		c-1.4,2.9-9.3-4.4-11.1-4.5c-1.9-1.9-4.2,0.5-6.5-0.5c-3.7-0.5-1.9-2.2-3.7-3.5c-2.3-0.9,0.5,1.8-0.5,1.9l-2.8-2.1
		c1.6-0.2,0.7-1.1,0.4-1.7c-2.4-0.3-6.2-3-6.9,0c-3.2-1.4-3.3-2.6-4.6-2.8c0.5,0.5,1.4,1,1.4,1.7c-1.3-1.3-0.6,0.3-0.1,0.6
		c-2,1.3-10.3-5.5-10.7-2.2V13c-0.5,2.5,0.3,4.9-1.1,6.2l-0.9-1.1l-1.4,1.1c-0.9-0.8-0.5-1.5-0.5-1.8c-2.3,1.1-5.4-0.2-8.2-0.5
		l2.9,6.7c-2.3-1.5-6.5-4.7-7-2.5l-1.4-2.3c-4.6-4.3-3.2,1.9-5.1,0.6l-2.3-2.5l2.3,0c-2.3-1.2-3.3-2-5.1-3.6c0,0,0,0,0,0.1
		c0.1,0.1,0.2,0.2,0.2,0.4l-0.3,0.1c-0.3,1.2-1.5,2.1-3.1,2c-2.3-0.3-4.1,1.5-7.9-1.1l-0.9,2.5l-2.8-1.5v-2
		c2.7,0.1,7.9-0.6,11.4-0.7l0.1-0.9c-2.1,0-4.4,0.9-5.8,0.7c-0.7-0.4-2.4-2.5-1.1-3.8l-1.3,2c-6.9,0.2-7,0.3-14.2-1.9l0.6,1
		c-1.4,0.6-2.9,1.2-3.3-0.5c-4.4-0.3-8.9-1.6-11.7-4.1l-0.6,2.4c-0.9-0.1-2.3-3.7-2.7-0.4l-2,1c-1.3-0.2-2,1.2-3.5-0.2c0,0,0,0,0,0
		c0,0,0,0,0,0c-0.1-0.1-0.2-0.2-0.3-0.3c0,0.1,0,0.1,0,0.2c-2.8-1,0,2.1-3.2,0.8c-1-1.7-1.2,3-2.7,2.5l-1.6-3.4
		c-2.9-1.9-3.4,1.4-7.5,1.5c-2-1.2-3-4.1-1.6-6.6c-1.8,3.1-0.8,2-3.2,3.5c-0.4-1.3-0.1-1.5,0.4-2.7c-2.1-1.5-1.3,1.2-2.9,1.1
		c-0.5,2.4-1,6.2-1.5,6.4l0.6,0.7c-1.7,1.3-3.6,1.9-5.6,0.7l0.1-1.2l-2.1,0.6l-0.1-1.5l-3,0.5l0.4,0.4c-0.7,0.2-3,0.7-4.4-0.1l0-0.9
		c-3.8-2.7-6.9,0.8-11.3,1.1l0.6-1.8c-1.5-1.7-0.4,2.7-2.2,1.8l-0.1-2.2c-1.6,2.8-2-0.6-3.1-1.7l0.5,2.8l-2-0.6
		c-2.3-0.9-1.4-3.6-1.1-5l-1.5,2.2l-0.3-2.5c-1.1,2.9-1.1-0.5-3.1,1.1c-0.2-0.9,0.3-1.5-0.3-1.9l-3.2,3.5l2-1.6l-0.2,3.6
		c-2,2.8-2.8-0.4-4.2,0.6l1-1.1c-2.4,0.9-2.5-0.7-3.8-1.5c0.4,0.7,1,1.7,0.1,2.2c-0.7,0.2-0.4-1.3-1-1.7c-0.2,2.4-1.9,3.7-3.4,2.6
		c0-0.3,0.1-0.7,0.2-0.9c-0.4,0.4-0.6,1-1.3,0.4l0.4-2.7L226,9.8c-0.9-0.7-2.2,1.2-2-0.6l0.5-0.5L217.8,8l-0.1-2.2
		c-0.7,3-3.6-1.1-3.4,2.6c-1.3-2-4.9,1.4-4.2-2.7c-4.4-0.3-6.7,3.7-12.1,1.7c-1.9-3.5-7.1-2.4-10.5-2.8c-6.7,1.5-11,2.8-17.8,3.9
		c-4.1-4.9-10.2,1.7-14.6-1.1l-1.2,2c-2.9-3.1-7.4,0.7-11.5-2.3c-1,0.9-1.5,1.1-1.8,1.2c0.2,0.1,0.5,0.5,0.6,1.7
		c-1.2-0.9-3.6,0.2-3.4-2.3l0.3-0.3c0.2-2.5-3.6,1.2-4.9-1l0.7,2.7l-2.2-0.5l0.6-0.5c-9.7,5.9-14-2.5-23.1,2.9
		c1.2-2.9-1.8,1.5-1.9-1.7c-2.3-4-4.2,0.9-6.1,1.9c0,0.2,0,0.3-0.1,0.6l-3.3-0.4c2-4-2.4,3.3-0.6-0.1c-8.6-3-19.7,0.1-29.6-1.3
		l0.4,1c-2.5-0.2-5.6,1.1-7.5-0.6c-1.9-1.6-4.2,2.6-4.9,2.8c-2.1,1.8-4-1.8-3.1-1.6c-2.2,0.5-4.3,4.2-7.4,2.6
		c-1.1-3.4-8.5,3.3-8.5-0.5l0,0.3c-4-2.7-7.7,1.9-12-0.6c0,0,0.1-0.3,0.2-0.5L16,24.7l2.5,12.8L26,47.9l20.4-2.3l16.3,4.1l39.7-1.4
		l2.8-2.9c7.8,5.1,17.8-0.8,26.2,2.9l0.2-2.5c2.4-0.1,2.2,1.4,2.8,1.8c22-0.6,44.7-3.9,64.6-0.7c1.9,1.6,7.7,0.7,9.2,2.4
		c6.4-3,13.3-3,19.7-2.7l-0.2,0.3l3-0.5c0.1,0.2,0.1,0.5,0,0.7c3.4-2.2,8.8,0,13,0.9l-0.2,0.3c24.5,0.5,47.2-4.2,71.5-0.7
		c11.3,4.1,24.4-1.5,37.4,1.8C354.8,51.8,381,50,383.3,48.8z"/>
	<path d="M421.9,45.5l-0.1,0C421.8,46.5,421.9,46.1,421.9,45.5z"/>
	<path d="M367.7,16.8c0.1,0,0.1,0,0.2,0l-0.6-1.5L367.7,16.8z"/>
	<path d="M402.4,15.9c-1.6-0.3-1.6-0.1-1.4,0.3C401.6,16.4,402,16.3,402.4,15.9z"/>
	<path d="M434.6,43.5c0.8,0.1,0.5-0.5,0-1.2c-0.8,0.1-1.4,0.2-1.4,0.2C433.6,42.7,434.1,43.2,434.6,43.5z"/>
	<path d="M431.2,29.2l0.3-0.9C431,28.6,431,28.9,431.2,29.2z"/>
</g>
</svg>
