<?xml version="1.0" encoding="utf-8"?>
<!-- Generator: Adobe Illustrator 25.4.1, SVG Export Plug-In . SVG Version: 6.00 Build 0)  -->
<svg version="1.1" id="Layer_1" xmlns="http://www.w3.org/2000/svg" xmlns:xlink="http://www.w3.org/1999/xlink" x="0px" y="0px"
	 viewBox="0 0 147.3 53.1" style="enable-background:new 0 0 147.3 53.1;" xml:space="preserve">
<style type="text/css">
	.st0{fill:#202020;}
	.st1{fill:none;}
	.st2{fill:#FFFFFF;}
</style>
<g>
	<g>
		<g>
			<g>
				<g>
					<path class="st0" d="M10.6,47.2c0.4,1,1.1,1,1.7,1.2C11.8,47.4,11.3,47,10.6,47.2z"/>
					<path class="st0" d="M12.3,48.3L12.3,48.3L12.3,48.3L12.3,48.3z"/>
					<path class="st0" d="M142.7,5.1c-0.5-0.2-1.1-0.3-1.7-0.4c-0.3-0.1-0.6-0.1-0.9-0.2l-0.5-0.1c-0.1,0-0.1,0-0.2,0
						C140.5,4.6,141.6,4.8,142.7,5.1z"/>
					<path class="st0" d="M43.3,50.2l0.1-1.6c1.5-0.1,0.5,1.8,1.9,1.4c0.5-2.3,2.3,0.2,2.8-1c0,0.2,0.7,0.2,0.7,0.9
						c0.2-1.2,0.7-0.3,1.1-0.6c0.1-0.3-0.1-0.4-0.2-0.7l1-0.5c0.4,0.4,0.5,1.1,0.1,1.2c2.6,0.4,15,1.3,17.8,0.6
						c-0.4-0.9-1.2-0.3-1.6-1.7c0.7-0.8,1.1,0.3,1.4-0.6c0.3,2.2,1.6,0.5,2.2,2.7l0.2-1.2l0.4,0.7c3.2-1.3,0.7-0.6,3.6-0.4
						c1.7-0.2,2.4-1.9,3.3-1.3c-0.1,0-0.5-0.8-0.1-1.1c0.1,1.1,1.1-0.8,1.4,0.3c0.4-0.1,1.8,0,1.3-1.5c0.2,0.7,1.5,1,0.8,1.7
						c0.4,0,0.8,0.2,1.1-0.1L81.8,47c1.4-0.2,2.2,0.9,3-0.5L84.3,46c0.8-0.1,1.5-0.2,1.9,1.2l-0.8,0.5c1.4-0.1,2.2-0.2,3.3-1h-0.4
						c1.4-1.5,9-2.8,10.4-4.6L98,40.9l1.1-1c-0.1,0-0.5,3.7-0.6,3.3c2.5-0.1,15.3-1.1,17.5-0.3c0.9,0.6,0.2,1.8,0.1,2
						c1.1-0.4,0.5-1.2,1.4-1.1c0.3,0.2-0.1,0.9-0.2,1c0.4-0.1,0.8,0.3,0.8-0.3c-0.5-0.4-0.3-1.8-0.5-2.7l1.2,0.1l-0.1,0.9
						c0.3,0,0.7-2.4,1.9-1.9c1,0.2,2,0.2,3,0.3c1,0,2,0,3,0.2c0,0.5-0.5,0.8-0.9,1.1c0.3,0,0.6-0.1,0.9,0.3c-0.4-1,0.8-0.6,0.5-1
						c0.7-1.1,1.5-1.1,2.3-1c0.7,0.1,1.5,0.2,2-0.4c0.1-1,1.3-9.3,3-17.6s4.7-16.4,4.9-17.5c1.2,0.3,2.6,0.7,3.7,1.1
						c1.1,0.4,1.9,0.8,2.2,1c-0.2-0.4-1.5-1.2-3.3-1.8c-0.4-0.1-0.9-0.3-1.4-0.4L139.8,5c-0.2,0-0.5-0.1-0.5-0.1c-0.3,0-0.6,0-0.8,0
						l-0.4,1.2c-1,0.1-1.1-0.1-1.2-0.4c0-0.1-0.1-0.3-0.2-0.4c-0.1-0.1-0.2-0.1-0.3-0.1c-0.2,0-0.4-0.1-0.5-0.1
						c-0.2-1.1,1.8-1,3.5-0.9c-0.7-0.2-1.5-0.5-2.1-0.6c-0.3-0.1-0.6-0.1-0.9,0c-0.3,0.1-0.4,0.2-0.5,0.5c-0.9-0.5,0.2-1.2-0.9-1.8
						c-0.4,0.1-0.9,0.4-1.4,0.6s-0.9,0.3-1.3-0.1V2.6c-0.9-0.6-1.7-0.2-2.4,0.1c-0.7,0.4-1.3,0.7-2.1,0.2l0.2-0.3
						c-0.6-0.6-1.7,0.1-2.7-0.5c0.3,0.2,0.5,1-0.1,1.1c-1.1-0.7-1.9,0-2.7-0.8l-0.8,1c-1.9-0.1-6.7,0.1-11.4,0.5
						c-4.7,0.4-9.4,0.8-11.2,0.9l0.1-0.2c-5.8,0.5-17.5,0.6-23.4,2.1c-0.9-1-2.2-0.7-3.1-1c0.5,0.4,0.4,1.1,0,1.1
						c-2.9-0.1-0.2,0.7-3.1,1.2c-3.4,1-16.3,0.2-19.3-0.5c-1.6,1.5-3.6,0.4-5.2,1.4l0.2-0.3c-1.9,0.5-11.5-0.6-13.4,0l0.3,0.2
						c-1.7,0.9-1.5-0.6-2.9-1.1c0.2,1.6-1.2,2.6-1.8,2.7V10c-0.8,0.3-2.7,1.8-4.1,2v-0.9c-1.1,1-3.3,0.7-4.2,0.8
						c-1.9-0.3-4.9-1.8-7.5-0.5L10,8.9L9.8,9.2c0,0-0.4,7.6-0.4,16.1c0,8.4,0.5,17.7,2.3,20.9v0.9l0.7-0.1c0.8,0.4,1.1-0.6,1.1,0.3
						l-1.1-0.1c0.8,0.2,0.3,0.7,0,1.2c0.3,0.1,0.7,0.2,0.9,0.4c0.1-0.3-0.1-0.4-0.3-0.6c0.4-0.3,1-1.2,1.5-0.8
						c0.8,0.1,0.1,1.4,1.1,1.5c5.1,0.5,10,1.4,15.1,1.1c0.1,0.4,0,0.4-0.2,0.5c1.5-0.4,2.9-0.3,4.3-0.8c0.4,0.4,0.5,0.9,0.6,1.3
						C35.2,50.3,43.2,50.1,43.3,50.2z"/>
				</g>
			</g>
		</g>
	</g>
</g>
<rect x="33.5" y="14.9" class="st1" width="79.7" height="26.3"/>
<g>
	<path class="st2" d="M37.3,23.5c0.5-1.7,0.9-3,1.2-3.9c0.3-0.9,0.6-1.7,0.9-2.4c0.3-0.7,0.6-1.4,1-2.1c0.4-0.7,0.8-1.3,1.3-1.8
		c0.5-0.6,1-1,1.5-1.3c0.5-0.3,1.1-0.5,1.6-0.5c0.6,0,1.2,0.2,1.8,0.7c1,2.5,1.6,4.2,1.8,5c0.3,1.2,0.6,3,0.8,5.3
		c0.2-0.6,0.5-1.2,0.8-1.8c0.3-0.6,0.6-1.3,0.8-1.9c0.8-1.6,1.3-2.9,1.5-3.7c0.5-1.7,1.7-3.1,3.4-3.9c1.5-0.7,2.9-1,4.2-0.7
		c0.5,0.1,0.9,0.3,1.1,0.6c0.2,0.3,0.2,0.7,0,1c-0.2,0.3-0.3,0.7-0.2,1c0.1,0.3,0.1,0.7,0.2,1.1c0.1,1.1-0.1,2.2-0.6,3
		c-0.5,0.9-1,2-1.5,3.3c-0.5,1.3-1,2.7-1.5,4.2c-0.5,1.5-1,3-1.6,4.5c-0.5,1.5-1,2.9-1.5,4.1c-1.1,2.9-2,4.4-2.7,4.7
		c-0.9,0.6-1.6,0.9-2.1,1c-0.6,0.1-1.4,0.1-2.4,0c-0.6,0-1.2-0.9-1.7-2.5c-0.3-0.9-0.5-2.1-0.7-3.6c-0.4-2.7-0.7-4.2-0.8-4.4
		c-1,3.2-1.7,5.3-2.1,6.1c-0.4,0.8-0.7,1.4-0.9,1.7c-0.2,0.3-0.5,0.6-0.8,1.1c-0.3,0.9-1.1,1.6-2.3,2c-1,0.4-2,0.5-2.8,0.2
		c-0.9-0.3-1.2-0.9-0.8-1.7C34.3,34.6,35.4,29.9,37.3,23.5z"/>
	<path class="st2" d="M71.3,32.4c-0.5,0.2-0.9,0.4-1.4,0.5c-0.4,0.1-1,0.2-1.6,0.4c-1.6,0.3-2.7,0.5-3.4,0.6
		c0.1,0.2,0.4,0.5,1.1,0.9c0.4,0.1,0.9,0,1.5-0.2c0.5-0.2,1.1-0.4,1.7-0.6c0.6-0.2,1.2-0.3,1.7-0.3c0.6,0,1.1,0.2,1.6,0.6
		c0.2,0.4,0.4,0.7,0.5,0.8c0.1,0.1,0.2,0.1,0.3,0.1s0.2,0,0.3,0.1c0.1,0.1,0.3,0.4,0.5,0.9c0.2,0.5,0.2,1-0.2,1.4
		c-0.4,0.4-0.9,0.8-1.7,1.2c-0.7,0.3-1.6,0.6-2.6,0.8c-1,0.2-2,0.3-3,0.4c-2.2,0.2-3.9,0-5.1-0.5c-1.7-0.6-2.8-1.7-3.3-3.4
		c-0.6-2.2-0.3-4.9,1.1-7.8c0.6-1.4,1.6-2.9,3-4.5c1.2-1.4,2.5-2.4,3.9-3c1.7-0.7,3.4-1.1,5.2-1c1.9,0.1,3.3,0.9,4,2.5
		c0.4,0.9,0.4,2.1,0.2,3.7c-0.4,2-0.9,3.5-1.6,4.3C73.6,31,72.6,31.8,71.3,32.4z M69.1,26.5c-1.3-0.3-2.4,0.5-3.1,2.2
		c-0.2,0.5-0.4,1-0.5,1.5c0.8,0.1,1.7-0.4,2.7-1.4c0.3-0.4,0.6-0.9,0.8-1.3C69.2,27.1,69.2,26.8,69.1,26.5z"/>
	<path class="st2" d="M89.7,21.3c0.6-0.5,1.1-0.9,1.3-1.1c0.2-0.2,0.5-0.5,0.8-0.7c0.3-0.2,0.5-0.4,0.8-0.4c0.2,0,0.5,0,0.8,0.1
		c0.3,0.1,0.6,0.2,0.9,0.2c0.3,0.1,0.4,0.1,0.5,0.1c0.3,0.3,0.5,0.6,0.7,1.1c0.2,0.4,0.3,0.8,0.3,1c0,0.2-0.1,0.5-0.2,0.7
		c-0.5,1.3-1.8,3.1-4,5.5c-0.5,0.6-1,1.1-1.4,1.5c0.2,0.7,0.4,1.7,0.5,3c0.2,2.5,0.4,4,0.5,4.3c0.1,0.4,0.1,0.6,0.1,0.8
		c0,0.2,0.1,0.3,0.2,0.5c0.1,0.4,0,0.8-0.4,1c-0.4,0.2-0.8,0.4-1.4,0.6c-1.1,0.3-2.1,0.3-2.9,0.1c-0.4-0.3-0.7-0.7-0.9-1.1
		c-0.2-0.5-0.6-1.6-1.2-3.2c-0.3,0.3-0.5,0.6-0.8,0.9c-0.2,0.3-0.5,0.6-0.7,0.9l-0.5,0.7c-0.1,0.2-0.3,0.4-0.4,0.6s-0.3,0.4-0.5,0.6
		c-0.3,0.4-0.9,0.8-1.6,1.2c-0.7,0.3-1.3,0.4-1.9,0.4c-1.1-0.1-1.7-0.4-1.8-0.9c-0.6-0.2-0.9-0.5-1-0.9c-0.1-0.4,0-1.1,0.2-2
		c2.2-4.1,4.2-6.9,5.9-8.4c-0.2-0.3-0.4-0.9-0.5-1.6c-0.3-1.3-0.5-2.2-0.7-2.6c-0.6-0.2-1.1-0.5-1.3-1c-0.3-0.5-0.2-1.1,0.2-2
		l0.4-0.5c1-0.9,2-1.4,3-1.6c1-0.2,2,0.1,2.9,0.7c0.6,0.2,1.4,0.9,2.1,2.1c0.2,0.3,0.3,0.5,0.4,0.7C88.6,22.3,89.1,21.8,89.7,21.3z"
		/>
	<path class="st2" d="M103.8,10l0-0.1l0.3-0.3c0.3-0.6,0.6-1,0.9-1.2c0.2,0,0.4-0.1,0.7-0.2c0.3-0.1,0.6-0.3,1.1-0.6
		c0.2-0.3,0.5-0.5,1.1-0.5c0.5,0,1.1,0.2,1.6,0.5c0.5,0.3,1,0.7,1.3,1.3c0.3,0.5,0.4,1.1,0.2,1.7c-0.2,0.6-0.3,1-0.4,1.3
		c-0.1,0.3-0.2,0.6-0.3,0.8c-0.1,0.2-0.2,0.5-0.4,0.8c-0.2,0.3-0.4,0.7-0.6,1.3l-1.2,2.6c-0.1,0.3-0.2,0.5-0.3,0.6
		c-0.1,0.1-0.2,0.1-0.2,0.3c0.2,0,0.4-0.1,0.6-0.1c0.1,0,0.3,0,0.4-0.1c0.3,0,0.7-0.1,1.2-0.1c0.3,0.1,0.5,0.1,0.7,0.1h0.5
		c0.3,0,0.7,0.1,1.1,0.2c0.4,0.2,0.7,0.4,0.8,0.8c0.1,0.4,0.1,0.8,0,1.2c-0.1,0.4-0.3,0.8-0.6,1.1c-0.3,0.3-0.7,0.5-1.2,0.6
		c-2.2,0.6-3.7,0.9-4.6,1l-0.2,0.3v0c-0.2,0.6-0.5,1.4-0.8,2.3c-0.3,0.9-0.6,1.9-0.9,3c-0.3,1.1-0.7,2.2-1,3.3
		c-0.3,1.1-0.7,2.2-1.1,3.3c-1.2,3.5-2.1,5.4-2.6,5.7c-0.2,0.1-0.4,0.2-0.6,0.2c-0.2,0-0.3,0.1-0.4,0.1c-0.9,0-1.6-0.2-2.2-0.5
		s-1-0.6-1.2-0.9c-0.2-0.3-0.2-0.6-0.1-0.9c0.5-4.3,1.4-9.1,2.8-14.2c-0.5,0-0.8,0.1-1,0.1c-0.4,0.2-0.8,0.3-1.3,0.3h0
		c-0.4,0-0.8-0.2-1.1-0.6c-0.3-0.3-0.5-0.7-0.6-1.2c-0.1-0.4,0-0.9,0.2-1.4c0.2-0.5,0.7-0.8,1.3-1.1c0.8-0.2,1.4-0.4,1.8-0.6
		c0.7-0.3,1.3-0.5,1.8-0.6c0.5-0.1,0.8-0.2,0.8-0.2s0.1-0.1,0.1-0.1c0.1,0,0.3-0.1,0.6-0.1c0.1-0.7,0.3-1.5,0.4-2.2s0.3-1.5,0.6-2.3
		C102.3,12.9,103,11.3,103.8,10z"/>
</g>
</svg>
