<?xml version="1.0" encoding="utf-8"?>
<!-- Generator: Adobe Illustrator 25.4.1, SVG Export Plug-In . SVG Version: 6.00 Build 0)  -->
<svg version="1.1" id="Layer_1" xmlns="http://www.w3.org/2000/svg" xmlns:xlink="http://www.w3.org/1999/xlink" x="0px" y="0px"
	 viewBox="0 0 147.3 53.1" style="enable-background:new 0 0 147.3 53.1;" xml:space="preserve">
<path d="M142.1,35.2c0.7-3.5,1.4-6.9,2.1-10.4c0.2-0.9-1.3-1.7-2.6-1.7c0-0.5-0.1-0.9-0.1-1.4c0-2.3-1.6-4-3.5-4.6
	c0.7-3,0.7-6.1-0.8-8.9c-1.5-2.8-4.3-4.7-7.6-4.8c-3.9-0.2-6.1,1.9-8.5,4.7c-0.8,0.9-1.6,1.7-2.3,2.5c-0.5,0.1-0.9,0.3-1.4,0.6
	c-0.6-0.1-1.2-0.1-1.8-0.2c-0.2-1.5-0.5-3-0.8-4.5c-0.4-1.7-4.6-1.5-5.1,0c-0.1,0.2-0.2,0.5-0.2,0.7c-0.5,0.2-1,0.4-1.2,0.8
	c-0.1-0.3-0.2-0.7-0.3-1c-0.5-1.3-3.8-1.7-4.9-0.4c-0.9,1.2-1.8,2.4-2.6,3.6c-1.7-0.1-3.4-0.1-5.2-0.2c-2.1-0.1-4.2-0.3-6.2-0.5
	c-0.2-1-0.4-1.9-0.6-2.9c-0.4-1.7-4.4-1.4-5.1,0c-0.4,0.7-0.7,1.3-1,2c-1-0.1-2.1-0.3-3.1-0.4c-0.2-2.1-0.7-4.3-1.5-6.4
	c-0.2-0.5-1-1.1-1.9-1.2c-2.7-0.2-4.5,0.5-5.9,1.9c-1.6,1.5-2.9,3.1-4.3,4.6c0,0-0.1,0.1-0.1,0.1c-2,0-3.9-0.1-5.6-0.4
	c-0.5-1.1-1.5-2.1-3.3-2.7c-1.3-0.4-3-0.2-3.7,0.7c-0.3-0.1-0.6-0.2-1-0.4c-3.5-1.3-7.3-1.7-10.7,0C41,4.7,40.6,5,40.2,5.2
	c-1.3-0.5-2.7-0.7-4.1-0.5c-0.4,0-0.9-0.1-1.3-0.1c0-0.8,0-1.6,0-2.4c-0.1-1.9-4.2-2.2-5.2-0.4l-2.8,4.9c-1.4,0.8-2.7,1.8-3.9,3.1
	c0,0-0.1,0-0.1,0.1c-1.2,0.1-2.4,0.4-3.6,0.8c-1.2-0.4-2.7-0.3-3.3,0.6c-0.1,0.1-0.2,0.3-0.3,0.4c0,0,0,0,0,0c0,0,0,0,0,0
	c-1.1,1.7-2.1,3.5-2.9,5.3c-2.7,0.2-5.3,0.4-8,0.6c-1.4,0.1-2.7,0.7-2.7,1.7c0,0.9,1.2,1.7,2.7,1.7c2.2,0,4.4-0.1,6.5-0.1
	c-1.2,4-1.7,8-1.3,12.1c0,1.1,0.1,2.1,0.3,3.2c0,0.3,0.2,0.5,0.3,0.7c0.3,1.4,0.7,2.8,1.3,4.1c0.5,1.3,3.3,1.5,4.6,0.7
	c-0.1,2.8,0,5.6,0.1,8.4c0.1,1.8,4.5,2.3,5.2,0.4c1.3-3.3,2.5-6.7,3.6-10.1c1,0,2-0.4,2.3-1.1c0.6,0,1.3-0.1,1.9-0.2
	c-0.4,3.2-0.7,6.3-0.7,9.5c0,1.9,4.4,2.2,5.2,0.4c0.6-1.2,1.1-2.3,1.6-3.5c0.4-0.2,0.7-0.5,0.8-0.9c0.2-0.7,0.3-1.4,0.5-2.1
	c0.4-1,0.8-1.9,1.2-2.9c0.1,0,0.2,0,0.2,0c0,0.5-0.1,1-0.1,1.5c-0.1,1.6,2.7,2,4.3,1.2c0.6,0.3,1.3,0.5,2,0.7c0.1,0.3,0.1,0.7,0.2,1
	c0.4,1.8,4.2,2.3,5.2,0.4c0.2-0.4,0.4-0.7,0.6-1.1c2.2,0,4.3-0.1,6.5-0.2c0,0.3-0.1,0.6-0.1,0.9c-0.2,1.5,3.1,2.1,4.6,1.2
	c0.6,1.1,1.7,2.1,3.8,2.4c1.2,0.2,2.4-0.1,3-0.8c2-2,3.9-4,5.7-6c0.8,0.2,1.6,0.3,2.4,0.5c-0.3,0.7-0.6,1.5-0.9,2.2
	c-0.6,1.5,2.7,3,4.4,1.6c0.3-0.2,0.6-0.4,0.9-0.7c0.3,0,0.5-0.1,0.8-0.2c1.1,0.6,2.3,1.1,3.6,1.5c2.3,0.8,5.2,1.6,7.8,1.3
	c0.8,0.9,3,1,4.2,0.3c1.4-0.8,2.9-1.6,4.4-2.4c4,0.3,8,0.4,11.8-0.3c1.3,1.3,3.1,2.4,5.6,2.7c1.4,0.2,2.5-0.2,3-0.9
	c0.2,0.1,0.4,0.2,0.6,0.4c1.2,0.7,3.4,0.7,4.2-0.3c0.4-0.5,0.8-1,1.1-1.5c2.6,2.6,5.6,4.6,9.3,6c3.1,1.2,6.3-1.8,6.3-4.8
	c0-3.9-1.3-7-3-10C141.4,36.3,141.9,35.9,142.1,35.2z M67,42.3c-0.3,0.3-0.5,0.6-0.8,0.9c-0.1-0.3-0.2-0.7-0.3-1
	c0.3-0.2,0.6-0.5,0.8-0.8c0.2-0.1,0.3-0.2,0.4-0.3c0,0,0,0,0.1,0C67.1,41.5,67.1,41.9,67,42.3z M71.6,7.5c0.1-0.1,0.1-0.2,0.2-0.2
	c0.6-0.6,1.1-1.2,1.7-1.8c0.2,0.7,0.3,1.5,0.4,2.2C73.2,7.6,72.4,7.5,71.6,7.5z"/>
</svg>
