<?xml version="1.0" encoding="utf-8"?>
<!-- Generator: Adobe Illustrator 25.4.1, SVG Export Plug-In . SVG Version: 6.00 Build 0)  -->
<svg version="1.1" id="Layer_1" xmlns="http://www.w3.org/2000/svg" xmlns:xlink="http://www.w3.org/1999/xlink" x="0px" y="0px"
	 viewBox="0 0 147.3 53.1" style="enable-background:new 0 0 147.3 53.1;" xml:space="preserve">
<style type="text/css">
	.st0{fill:#202020;}
	.st1{fill:none;}
	.st2{fill:#FFFFFF;}
</style>
<g>
	<g>
		<g>
			<g>
				<g>
					<path class="st0" d="M137.1,5.9c-0.4-1-1.1-1-1.7-1.2C135.9,5.7,136.4,6.1,137.1,5.9z"/>
					<path class="st0" d="M135.4,4.8L135.4,4.8L135.4,4.8L135.4,4.8z"/>
					<path class="st0" d="M5,48c0.5,0.2,1.1,0.3,1.7,0.4c0.3,0.1,0.6,0.1,0.9,0.2l0.5,0.1c0.1,0,0.1,0,0.2,0C7.2,48.5,6.1,48.3,5,48
						z"/>
					<path class="st0" d="M104.4,2.9l-0.1,1.6c-1.5,0.1-0.5-1.8-1.9-1.4c-0.5,2.3-2.3-0.2-2.8,1c0-0.2-0.7-0.2-0.7-0.9
						c-0.2,1.2-0.7,0.3-1.1,0.6c-0.1,0.3,0.1,0.4,0.2,0.7L97,5c-0.4-0.4-0.5-1.1-0.1-1.2c-2.6-0.4-15-1.3-17.8-0.6
						c0.4,0.9,1.2,0.3,1.6,1.7c-0.7,0.8-1.1-0.3-1.4,0.6C79,3.3,77.7,5,77.1,2.8L76.9,4l-0.4-0.7c-3.2,1.3-0.7,0.6-3.6,0.4
						c-1.7,0.2-2.4,1.9-3.3,1.3c0.1,0,0.5,0.8,0.1,1.1c-0.1-1.1-1.1,0.8-1.4-0.3c-0.4,0.1-1.8,0-1.3,1.5c-0.2-0.7-1.5-1-0.8-1.7
						c-0.4,0-0.8-0.2-1.1,0.1l0.8,0.4c-1.4,0.2-2.2-0.9-3,0.5l0.5,0.5c-0.8,0.1-1.5,0.2-1.9-1.2l0.8-0.5c-1.4,0.1-2.2,0.2-3.3,1h0.4
						C58,7.9,50.4,9.2,49,11l0.7,1.2l-1.1,1c0.1,0,0.5-3.7,0.6-3.3C46.7,10,33.9,11,31.7,10.2c-0.9-0.6-0.2-1.8-0.1-2
						c-1.1,0.4-0.5,1.2-1.4,1.1c-0.3-0.2,0.1-0.9,0.2-1C30,8.4,29.6,8,29.6,8.6c0.5,0.4,0.3,1.8,0.5,2.7l-1.2-0.1l0.1-0.9
						c-0.3,0-0.7,2.4-1.9,1.9c-1-0.2-2-0.2-3-0.3c-1,0-2,0-3-0.2c0-0.5,0.5-0.8,0.9-1.1c-0.3,0-0.6,0.1-0.9-0.3c0.4,1-0.8,0.6-0.5,1
						c-0.7,1.1-1.5,1.1-2.3,1c-0.7-0.1-1.5-0.2-2,0.4c-0.1,1-1.3,9.3-3,17.6S8.6,46.7,8.4,47.8c-1.2-0.3-2.6-0.7-3.7-1.1
						c-1.1-0.4-1.9-0.8-2.2-1c0.2,0.4,1.5,1.2,3.3,1.8c0.4,0.1,0.9,0.3,1.4,0.4l0.7,0.2c0.2,0,0.5,0.1,0.5,0.1c0.3,0,0.6,0,0.8,0
						L9.6,47c1-0.1,1.1,0.1,1.2,0.4c0,0.1,0.1,0.3,0.2,0.4c0.1,0.1,0.2,0.1,0.3,0.1c0.2,0,0.4,0.1,0.5,0.1c0.2,1.1-1.8,1-3.5,0.9
						c0.7,0.2,1.5,0.5,2.1,0.6c0.3,0.1,0.6,0.1,0.9,0c0.3-0.1,0.4-0.2,0.5-0.5c0.9,0.5-0.2,1.2,0.9,1.8c0.4-0.1,0.9-0.4,1.4-0.6
						s0.9-0.3,1.3,0.1v0.2c0.9,0.6,1.7,0.2,2.4-0.1c0.7-0.4,1.3-0.7,2.1-0.2l-0.2,0.3c0.6,0.6,1.7-0.1,2.7,0.5
						c-0.3-0.2-0.5-1,0.1-1.1c1.1,0.7,1.9,0,2.7,0.8l0.8-1c1.9,0.1,6.7-0.1,11.4-0.5c4.7-0.4,9.4-0.8,11.2-0.9l-0.1,0.2
						c5.8-0.5,17.5-0.6,23.4-2.1c0.9,1,2.2,0.7,3.1,1c-0.5-0.4-0.4-1.1,0-1.1c2.9,0.1,0.2-0.7,3.1-1.2c3.4-1,16.3-0.2,19.3,0.5
						c1.6-1.5,3.6-0.4,5.2-1.4l-0.2,0.3c1.9-0.5,11.5,0.6,13.4,0l-0.3-0.2c1.7-0.9,1.5,0.6,2.9,1.1c-0.2-1.6,1.2-2.6,1.8-2.7v0.4
						c0.8-0.3,2.7-1.8,4.1-2V42c1.1-1,3.3-0.7,4.2-0.8c1.9,0.3,4.9,1.8,7.5,0.5l1.7,2.5l0.2-0.3c0,0,0.4-7.6,0.4-16.1
						c0-8.4-0.5-17.7-2.3-20.9V6l-0.7,0.1c-0.8-0.4-1.1,0.6-1.1-0.3l1.1,0.1c-0.8-0.2-0.3-0.7,0-1.2c-0.3-0.1-0.7-0.2-0.9-0.4
						c-0.1,0.3,0.1,0.4,0.3,0.6c-0.4,0.3-1,1.2-1.5,0.8c-0.8-0.1-0.1-1.4-1.1-1.5c-5.1-0.5-10-1.4-15.1-1.1c-0.1-0.4,0-0.4,0.2-0.5
						c-1.5,0.4-2.9,0.3-4.3,0.8c-0.4-0.4-0.5-0.9-0.6-1.3C112.5,2.8,104.5,3,104.4,2.9z"/>
				</g>
			</g>
		</g>
	</g>
</g>
<rect x="33.5" y="14.9" class="st1" width="79.7" height="26.3"/>
<g>
	<path class="st2" d="M55.5,13.9c1.6-1.8,3.4-3,5.4-3.5c1.4-0.3,2.6-0.3,3.8,0.2c0.9-1,2.2-1.4,3.7-1.1c1.4,0.3,2.6,1,3.5,2.3
		c0.1,0.2,0.2,0.4,0.3,0.8c0.2,0.4,0.3,0.8,0.5,1.2c1.1,2.6,1.2,6,0.3,10.3c-1.2,5.3-3.3,9.7-6.3,13.4c-0.9,1.1-2,2.1-3.1,2.8
		c-1.8,1.4-4,2-6.6,1.9c-1.6-0.1-2.9-0.5-4-1.2c-4.3-2.1-5.7-6.5-4.2-13.3C50.1,22.2,52.3,17.6,55.5,13.9z M56,34.3l0,0.2l0.1,0.4
		c0.2,0.8,0.4,1.4,0.8,1.8c0.4,0.4,0.7,0.7,0.9,0.8c0.3-0.2,0.5-0.4,0.8-0.6c0.3-0.2,0.5-0.4,0.7-0.7c1.7-2.1,3.1-5,4.1-8.4
		c1-3.5,1.3-6.7,1.1-9.7c-1,1.3-2,2.7-3.1,4.4c-1.1,1.7-2,3.1-2.6,4.3C57.1,29.6,56.2,32.1,56,34.3z"/>
	<path class="st2" d="M79.1,12.1c0.5-1.2,1.2-1.6,2.1-1.3c0.3-0.6,0.5-0.9,0.7-1.1c0.2-0.2,0.4-0.3,0.6-0.4c0.2-0.1,0.4-0.2,0.7-0.3
		c0.2-0.1,0.6-0.2,1.1-0.3c0.5-0.1,1-0.1,1.6-0.1c0.6,0,1.2,0,1.8,0.1c0.6,0.1,1.1,0.2,1.5,0.5c1,0.6,1.2,1.5,0.7,2.8
		c0.1,0,0,0,0,0.1l-0.3,0.7l-0.3,0.3c-0.1,0.1-0.5,0.9-1.2,2.3c-0.5,1-1.1,2-1.6,3c-0.9,1.7-1.5,2.8-1.7,3.3
		c0.9-0.5,1.9-1.2,3.1-2.1c2.2-1.7,3.6-2.7,4.3-3.1c0.6-0.3,1-0.5,1.3-0.6c0.2-0.1,0.5-0.1,0.7-0.1c0.2,0,0.5,0.1,0.7,0.2l1,0.4
		c0.6,0.2,0.9,0.9,1,2.2c0,1.3-0.2,2.2-0.8,2.8c-2.3,3-4.9,5-7.9,6.1c-0.9,0.3-1.8,0.6-2.8,0.8c1.4,0.2,2.6,1,3.9,2.7
		c1,1.3,1.7,2.7,2.2,4.1c0.4,1.4,0.8,2.4,1.1,3.1c0.3,0.7,0.4,1.2,0.3,1.6c0,0.4-0.3,0.7-0.7,0.8c-0.4,0.2-1.1,0.4-2,0.6
		c-0.4,0.1-1.3-0.4-2.7-1.5c-0.6-0.5-1.2-1-1.9-1.6c-0.7-0.6-1.3-1.1-2-1.6c-1.5-1.2-2.6-1.8-3.2-1.9c-0.1,0-0.2,0-0.3-0.1l-0.7,1.7
		c-0.4,0.8-0.7,1.7-1.1,2.7c-0.4,0.9-0.8,1.8-1.3,2.5c-0.8,0.5-1.7,0.8-2.8,0.7c-1.2-0.1-2-0.6-2.4-1.5c-0.3-0.8,0.2-3.1,1.3-7
		c0.7-2.7,1.4-5.1,1.9-7.1c0.5-2,1-3.7,1.4-5.1c0.4-1.3,0.7-2.4,0.8-3.1c0.2-0.8,0.4-1.5,0.5-2.2C78,14.6,78.6,13.2,79.1,12.1z"/>
</g>
</svg>
