<?xml version="1.0" encoding="utf-8"?>
<!-- Generator: Adobe Illustrator 25.4.1, SVG Export Plug-In . SVG Version: 6.00 Build 0)  -->
<svg version="1.1" id="Layer_1" xmlns="http://www.w3.org/2000/svg" xmlns:xlink="http://www.w3.org/1999/xlink" x="0px" y="0px"
	 viewBox="0 0 100 100" style="enable-background:new 0 0 100 100;" xml:space="preserve">
<path d="M89.3,31.8c-1-3.7-2.7-6.6-7-6c-1.7,0.2-3.5,0.6-5.1,1.1c-0.9,0.3-2.1,1.1-3.2,1.4c-1.7-2.7-4.1-4.9-7-6.5
	c0.2-0.9,0.3-1.8,0.4-2.8c0.3-2.2,1-5-0.1-7.1c-1.2-2.3-3.5-2.4-5.8-2.7C59.5,9,57,8.5,54.9,9.1c-2.4,0.7-3.4,3.5-4.2,5.6
	c-0.4,0.9-0.5,2.1-0.7,3.3c-1.7,0-3.3,0.2-4.9,0.4c-1.2-2.3-2.8-4.8-4.9-5.9c-3-1.5-7.3,0.3-10.2,1.5c-2.9,1.2-6.4,2.9-5.4,6.7
	c0.6,2.4,1.9,4.6,3.4,6.7c-0.9,0.7-1.9,1.5-2.7,2.4c-1.3,1.4-2.2,3-2.9,4.7c-3.8,0.4-8,0.8-11.3,2.5c-4.6,2.3-3.5,6.3-2.8,10.5
	c0.5,3.3,0.2,9.6,4.4,10.8c1.9,0.5,3.8-0.4,5.6-1c1.6-0.5,3.2-0.9,4.8-1.2c0.7,3,1.7,5.9,3.3,8.4c0.9,1.3,1.9,2.5,3,3.4
	c-0.4,3.9-2.6,7.4-2.8,11.3c-0.1,1.4,0.8,2.9,2,3.5c2.5,1.3,5.7,1.4,8.4,2c2.8,0.7,5.6,2.1,8.5,2.3c1.4,0.1,2.8-0.9,3.5-2
	c1.7-2.9,2-7.1,2-10.8c4.5,0.1,9-0.4,13.2-2c0.2,0.2,0.5,0.4,0.8,0.5c3.4,1.9,4.2,6.4,7.5,8.4c4.6,2.8,7.3-2.5,9.2-5.8
	c1.8-3.1,6.6-5.9,5.9-9.9c-0.4-2.3-2.1-3.2-3.9-4.3l-5.3-3.3c1.1-3.5,1.5-7.2,1.3-11c0.3,0,0.6,0,0.9-0.1c3.3-0.4,8.4-0.2,9.8-4
	C91.3,39.6,90.2,34.9,89.3,31.8z M61.3,53.1c-2.4,4.8-8.7,6.7-13.7,6.3c-5.5-0.5-8.6-3.5-10.1-8.6c-1.2-4-1.3-10.2,2.8-12.2
	c1.2-1.8,2.8-3.3,4.7-4.4c5.3-2.9,12.7-2.8,15.7,3.2C62.9,41.7,63.6,48.5,61.3,53.1z"/>
</svg>
