<?xml version="1.0" encoding="utf-8"?>
<!-- Generator: Adobe Illustrator 25.4.1, SVG Export Plug-In . SVG Version: 6.00 Build 0)  -->
<svg version="1.1" id="Layer_1" xmlns="http://www.w3.org/2000/svg" xmlns:xlink="http://www.w3.org/1999/xlink" x="0px" y="0px"
	 viewBox="0 0 100 100" style="enable-background:new 0 0 100 100;" xml:space="preserve">
<g>
	<path d="M71.1,15c-3.6,4.2-6.2,9.2-9.6,13.5c-3.7,4.8-6.6,10.1-9.6,15.3c-4,6.8-9.2,13-12.7,20c-1.4-2-2.9-4-4.4-6
		c-2.9-3.7-5.8-8.5-10.5-10c-6.2-1.9-8.8,7.7-2.7,9.6c1.1,0.3,3.1,3.6,3.8,4.6c1.2,1.5,2.5,3.1,3.6,4.7c2.5,3.4,4.9,6.8,7.1,10.4
		c2.2,3.4,8.2,3.2,9.1-1.2c2.2-10.3,10-18.2,15.2-27.1c2.7-4.6,5.2-9.2,8.3-13.5c2.3-3.2,4.4-6.7,6.8-10c1.7-0.2,3.3-1.3,3.7-3.6
		c0.2-1.1,0.4-2.1,0.3-3.3C79.3,14.7,74.2,11.4,71.1,15z"/>
</g>
</svg>
